<mxfile host="app.diagrams.net" agent="Mozilla/5.0 (Windows NT 10.0; Win64; x64) AppleWebKit/537.36 (KHTML, like Gecko) Chrome/121.0.0.0 Safari/537.36" version="24.7.14">
  <diagram name="第 1 页" id="YOAP40VyK5vfWviQJd3N">
    <mxGraphModel dx="998" dy="536" grid="1" gridSize="10" guides="1" tooltips="1" connect="1" arrows="1" fold="1" page="1" pageScale="1" pageWidth="827" pageHeight="1169" math="0" shadow="0">
      <root>
        <mxCell id="0" />
        <mxCell id="1" parent="0" />
        <mxCell id="MdxfO4Nw2_HGN67nGP4e-7" value="" style="rounded=1;whiteSpace=wrap;html=1;" parent="1" vertex="1">
          <mxGeometry x="66" y="281" width="140" height="180" as="geometry" />
        </mxCell>
        <mxCell id="MdxfO4Nw2_HGN67nGP4e-1" value="image encoder" style="rounded=1;whiteSpace=wrap;html=1;" parent="1" vertex="1">
          <mxGeometry x="76" y="110" width="120" height="60" as="geometry" />
        </mxCell>
        <mxCell id="MdxfO4Nw2_HGN67nGP4e-2" value="SparseDrive" style="rounded=1;whiteSpace=wrap;html=1;" parent="1" vertex="1">
          <mxGeometry x="340" y="20" width="120" height="60" as="geometry" />
        </mxCell>
        <mxCell id="MdxfO4Nw2_HGN67nGP4e-3" value="symmetric sparse perception" style="rounded=1;whiteSpace=wrap;html=1;" parent="1" vertex="1">
          <mxGeometry x="340" y="110" width="120" height="60" as="geometry" />
        </mxCell>
        <mxCell id="MdxfO4Nw2_HGN67nGP4e-4" value="parallel motion planner" style="rounded=1;whiteSpace=wrap;html=1;" parent="1" vertex="1">
          <mxGeometry x="668" y="110" width="120" height="60" as="geometry" />
        </mxCell>
        <mxCell id="MdxfO4Nw2_HGN67nGP4e-5" value="backbone" style="rounded=1;whiteSpace=wrap;html=1;" parent="1" vertex="1">
          <mxGeometry x="76" y="311" width="120" height="60" as="geometry" />
        </mxCell>
        <mxCell id="MdxfO4Nw2_HGN67nGP4e-6" value="neck" style="rounded=1;whiteSpace=wrap;html=1;" parent="1" vertex="1">
          <mxGeometry x="76" y="391" width="120" height="60" as="geometry" />
        </mxCell>
        <mxCell id="MdxfO4Nw2_HGN67nGP4e-8" value="image encoder" style="text;html=1;align=center;verticalAlign=middle;whiteSpace=wrap;rounded=0;" parent="1" vertex="1">
          <mxGeometry x="91" y="281" width="90" height="30" as="geometry" />
        </mxCell>
        <mxCell id="MdxfO4Nw2_HGN67nGP4e-9" value="BEV images" style="rounded=1;whiteSpace=wrap;html=1;" parent="1" vertex="1">
          <mxGeometry x="76" y="200" width="120" height="60" as="geometry" />
        </mxCell>
        <mxCell id="MdxfO4Nw2_HGN67nGP4e-10" value="" style="rounded=1;whiteSpace=wrap;html=1;" parent="1" vertex="1">
          <mxGeometry x="66" y="480" width="140" height="100" as="geometry" />
        </mxCell>
        <mxCell id="MdxfO4Nw2_HGN67nGP4e-11" value="multi-view&lt;div&gt;multi-scale&lt;/div&gt;&lt;div&gt;feature maps I&lt;/div&gt;" style="text;html=1;align=center;verticalAlign=middle;whiteSpace=wrap;rounded=0;" parent="1" vertex="1">
          <mxGeometry x="96" y="490" width="80" height="30" as="geometry" />
        </mxCell>
        <mxCell id="MdxfO4Nw2_HGN67nGP4e-13" value="I (N, C, Hs, Ws)" style="text;html=1;align=center;verticalAlign=middle;whiteSpace=wrap;rounded=0;" parent="1" vertex="1">
          <mxGeometry x="92" y="540" width="90" height="30" as="geometry" />
        </mxCell>
        <mxCell id="MdxfO4Nw2_HGN67nGP4e-15" value="" style="rounded=1;whiteSpace=wrap;html=1;" parent="1" vertex="1">
          <mxGeometry x="330" y="281" width="140" height="180" as="geometry" />
        </mxCell>
        <mxCell id="MdxfO4Nw2_HGN67nGP4e-16" value="sparse detection" style="text;html=1;align=center;verticalAlign=middle;whiteSpace=wrap;rounded=0;" parent="1" vertex="1">
          <mxGeometry x="347.5" y="281" width="105" height="30" as="geometry" />
        </mxCell>
        <mxCell id="MdxfO4Nw2_HGN67nGP4e-17" value="&lt;div&gt;Fd&lt;/div&gt;" style="rounded=1;whiteSpace=wrap;html=1;" parent="1" vertex="1">
          <mxGeometry x="300" y="480" width="90" height="50" as="geometry" />
        </mxCell>
        <mxCell id="MdxfO4Nw2_HGN67nGP4e-18" value="&lt;div&gt;Bd&lt;/div&gt;" style="rounded=1;whiteSpace=wrap;html=1;" parent="1" vertex="1">
          <mxGeometry x="410" y="480" width="90" height="50" as="geometry" />
        </mxCell>
        <mxCell id="MdxfO4Nw2_HGN67nGP4e-19" value="" style="rounded=1;whiteSpace=wrap;html=1;" parent="1" vertex="1">
          <mxGeometry x="658" y="281" width="140" height="39" as="geometry" />
        </mxCell>
        <mxCell id="MdxfO4Nw2_HGN67nGP4e-20" value="motion planner" style="text;html=1;align=center;verticalAlign=middle;whiteSpace=wrap;rounded=0;" parent="1" vertex="1">
          <mxGeometry x="675.5" y="281" width="105" height="30" as="geometry" />
        </mxCell>
        <mxCell id="MdxfO4Nw2_HGN67nGP4e-21" value="map elements" style="rounded=1;whiteSpace=wrap;html=1;" parent="1" vertex="1">
          <mxGeometry x="578" y="200" width="90" height="50" as="geometry" />
        </mxCell>
        <mxCell id="MdxfO4Nw2_HGN67nGP4e-22" value="surrounding agents" style="rounded=1;whiteSpace=wrap;html=1;" parent="1" vertex="1">
          <mxGeometry x="683" y="200" width="90" height="50" as="geometry" />
        </mxCell>
        <mxCell id="MdxfO4Nw2_HGN67nGP4e-23" value="initialized ego" style="rounded=1;whiteSpace=wrap;html=1;" parent="1" vertex="1">
          <mxGeometry x="788" y="200" width="90" height="50" as="geometry" />
        </mxCell>
        <mxCell id="MdxfO4Nw2_HGN67nGP4e-24" value="trajectory" style="rounded=1;whiteSpace=wrap;html=1;" parent="1" vertex="1">
          <mxGeometry x="668" y="350" width="120" height="60" as="geometry" />
        </mxCell>
        <mxCell id="MdxfO4Nw2_HGN67nGP4e-25" value="feature maps I" style="rounded=1;whiteSpace=wrap;html=1;" parent="1" vertex="1">
          <mxGeometry x="240" y="200" width="90" height="50" as="geometry" />
        </mxCell>
        <mxCell id="MdxfO4Nw2_HGN67nGP4e-26" value="instance features Fd" style="rounded=1;whiteSpace=wrap;html=1;" parent="1" vertex="1">
          <mxGeometry x="345" y="200" width="90" height="50" as="geometry" />
        </mxCell>
        <mxCell id="MdxfO4Nw2_HGN67nGP4e-27" value="anchor boxes Bd" style="rounded=1;whiteSpace=wrap;html=1;" parent="1" vertex="1">
          <mxGeometry x="450" y="200" width="90" height="50" as="geometry" />
        </mxCell>
        <mxCell id="MdxfO4Nw2_HGN67nGP4e-28" value="non-temporal decoder" style="rounded=1;whiteSpace=wrap;html=1;" parent="1" vertex="1">
          <mxGeometry x="340" y="310" width="120" height="60" as="geometry" />
        </mxCell>
        <mxCell id="MdxfO4Nw2_HGN67nGP4e-29" value="temporal decoder" style="rounded=1;whiteSpace=wrap;html=1;" parent="1" vertex="1">
          <mxGeometry x="340" y="391" width="120" height="60" as="geometry" />
        </mxCell>
        <mxCell id="MdxfO4Nw2_HGN67nGP4e-36" value="" style="rounded=1;whiteSpace=wrap;html=1;" parent="1" vertex="1">
          <mxGeometry x="340" y="721" width="140" height="180" as="geometry" />
        </mxCell>
        <mxCell id="MdxfO4Nw2_HGN67nGP4e-37" value="online mapping" style="text;html=1;align=center;verticalAlign=middle;whiteSpace=wrap;rounded=0;" parent="1" vertex="1">
          <mxGeometry x="357.5" y="721" width="105" height="30" as="geometry" />
        </mxCell>
        <mxCell id="MdxfO4Nw2_HGN67nGP4e-38" value="&lt;div&gt;Fm&lt;/div&gt;&lt;div&gt;(Nm, C)&lt;/div&gt;" style="rounded=1;whiteSpace=wrap;html=1;" parent="1" vertex="1">
          <mxGeometry x="310" y="920" width="90" height="50" as="geometry" />
        </mxCell>
        <mxCell id="MdxfO4Nw2_HGN67nGP4e-39" value="&lt;div&gt;Lm&lt;/div&gt;&lt;div&gt;(Nm, Np, 2)&lt;/div&gt;" style="rounded=1;whiteSpace=wrap;html=1;" parent="1" vertex="1">
          <mxGeometry x="420" y="920" width="90" height="50" as="geometry" />
        </mxCell>
        <mxCell id="MdxfO4Nw2_HGN67nGP4e-40" value="feature maps I" style="rounded=1;whiteSpace=wrap;html=1;" parent="1" vertex="1">
          <mxGeometry x="250" y="640" width="90" height="50" as="geometry" />
        </mxCell>
        <mxCell id="MdxfO4Nw2_HGN67nGP4e-41" value="instance features Fm" style="rounded=1;whiteSpace=wrap;html=1;" parent="1" vertex="1">
          <mxGeometry x="355" y="640" width="90" height="50" as="geometry" />
        </mxCell>
        <mxCell id="MdxfO4Nw2_HGN67nGP4e-42" value="anchor polylines Lm&lt;div&gt;(Nm, Np*2)&lt;/div&gt;" style="rounded=1;whiteSpace=wrap;html=1;" parent="1" vertex="1">
          <mxGeometry x="460" y="640" width="90" height="50" as="geometry" />
        </mxCell>
        <mxCell id="MdxfO4Nw2_HGN67nGP4e-43" value="non-temporal decoder" style="rounded=1;whiteSpace=wrap;html=1;" parent="1" vertex="1">
          <mxGeometry x="350" y="750" width="120" height="60" as="geometry" />
        </mxCell>
        <mxCell id="MdxfO4Nw2_HGN67nGP4e-44" value="temporal decoder" style="rounded=1;whiteSpace=wrap;html=1;" parent="1" vertex="1">
          <mxGeometry x="350" y="831" width="120" height="60" as="geometry" />
        </mxCell>
        <mxCell id="ALasrI6WZMe77TCxt2ad-2" value="&lt;div&gt;IDENTIFY:&lt;/div&gt;car&lt;div&gt;truck&lt;/div&gt;&lt;div&gt;construction_vehicle&lt;/div&gt;&lt;div&gt;bus&lt;/div&gt;&lt;div&gt;trailer&lt;/div&gt;&lt;div&gt;barrier&lt;/div&gt;&lt;div&gt;motorcycle&lt;/div&gt;&lt;div&gt;bicycle&lt;/div&gt;&lt;div&gt;pedestrian&lt;/div&gt;&lt;div&gt;traffic_cone&lt;/div&gt;&lt;div&gt;&lt;br&gt;&lt;/div&gt;&lt;div&gt;ped_crossing&lt;/div&gt;&lt;div&gt;divider&lt;/div&gt;&lt;div&gt;boundary&lt;/div&gt;" style="rounded=0;whiteSpace=wrap;html=1;" vertex="1" parent="1">
          <mxGeometry x="980" y="110" width="170" height="280" as="geometry" />
        </mxCell>
        <mxCell id="ALasrI6WZMe77TCxt2ad-3" value="gnn&lt;div&gt;norm&lt;/div&gt;&lt;div&gt;deformable&lt;/div&gt;&lt;div&gt;ffn&lt;/div&gt;&lt;div&gt;norm&lt;/div&gt;&lt;div&gt;refine&lt;/div&gt;" style="rounded=0;whiteSpace=wrap;html=1;" vertex="1" parent="1">
          <mxGeometry x="980" y="420" width="170" height="150" as="geometry" />
        </mxCell>
      </root>
    </mxGraphModel>
  </diagram>
</mxfile>
